<svg id="Layer_1" data-name="Layer 1" xmlns="http://www.w3.org/2000/svg" viewBox="0 0 268.16 261.03"><defs><style>.cls-1{fill:#b03a3b;}.cls-2{fill:none;stroke:#e0dab9;stroke-miterlimit:10;stroke-width:5px;}</style></defs><title>cooking icon-01</title><circle class="cls-1" cx="133.82" cy="128.32" r="124.06"/><line class="cls-2" x1="70.43" y1="157.1" x2="200.57" y2="157.1"/><path class="cls-2" d="M76.51,158s2.47,59.58,61.16,59.58c53.91,0,59.42-59.58,59.42-59.58"/><polygon class="cls-2" points="111.24 86.59 97.53 92.9 75.4 44.07 89.11 37.76 111.24 86.59"/><line class="cls-2" x1="104.62" y1="88.18" x2="113.69" y2="109.12"/><path class="cls-2" d="M158.54,143.09c17.24,19.86-9.88,13.26-16.52,13.44-13.88.37-29.13,4-31.45-6.57-4.08-18.59-6.23-41.33,5.94-41.33S146.33,129,158.54,143.09Z"/><line class="cls-2" x1="130.13" y1="155.65" x2="113.69" y2="109.12"/><line class="cls-2" x1="153.9" y1="156.8" x2="116.51" y2="108.63"/></svg>