<svg id="Layer_1" data-name="Layer 1" xmlns="http://www.w3.org/2000/svg" viewBox="0 0 268.16 261.03"><defs><style>.cls-1{fill:#06767f;}.cls-2{fill:none;stroke:#e0dab9;stroke-miterlimit:10;stroke-width:5px;}</style></defs><title>fashion icon</title><circle class="cls-1" cx="133.82" cy="128.32" r="124.06"/><path class="cls-2" d="M111.33,183.05s24.44,7.63,32.56,6c6.34-1.27,16.55-10.8,22.9-12,6.67-1.24,27,3.06,27,3.06s7.64-2.09,9.66-5.09c6-8.84-5.13-29.36-11.14-38.17s-30.58-27-30.58-27-4.44-3.41-5.09-5.09c-.87-2.26.51-9.67.51-9.67l12.21-47.07-19.84-6.36S140,54.24,135.24,54.43c-5.26.22-16.79-12.72-16.79-12.72l-18.32,5.6,13.74,44.27s.84,8.15,0,10.68-6.11,8.15-6.11,8.15-20.88,17.26-27,23.91c-7.31,8-22.24,30.06-17.3,39.69,2.19,4.29,18.82,4.07,18.82,4.07"/><path class="cls-2" d="M114.38,107.35s14.5,3.56,19.44,3.56c11.34,0,22.79-6.1,22.79-6.1"/></svg>