<svg id="Layer_1" data-name="Layer 1" xmlns="http://www.w3.org/2000/svg" viewBox="0 0 268.16 261.03"><defs><style>.cls-1,.cls-4{fill:#59a2d2;}.cls-2,.cls-3{fill:none;}.cls-2,.cls-3,.cls-4{stroke:#e0dab9;}.cls-2,.cls-4{stroke-miterlimit:10;stroke-width:5px;}.cls-3{stroke-linecap:square;stroke-linejoin:round;stroke-width:4px;}</style></defs><title>painting icon-01-01</title><circle class="cls-1" cx="133.82" cy="128.32" r="124.06"/><circle class="cls-2" cx="107.99" cy="102.63" r="9.47"/><circle class="cls-2" cx="137.35" cy="95.06" r="11.98"/><ellipse class="cls-2" cx="162.36" cy="109.49" rx="8.42" ry="8.88"/><ellipse class="cls-2" cx="112.8" cy="154.73" rx="11.67" ry="11.32"/><path class="cls-3" d="M158.57,134.56s-9.32,2.78-11.38,5.27c-3,3.63-2.86,15.09-5.69,18.86-1.35,1.78-8,4-8,4s14.87.37,19.8-.35c2.82-.4,8.39-1.62,10.47-3.56,2.69-2.51,7.74-10.77,7.74-10.77Z"/><path class="cls-2" d="M182.48,124.31c0,28.8-15.48,54.37-47.32,59.15-12.58,1.89-39.61,3.25-50-22.36-8.52-21,16.9-19.51,16.9-33.29,0-12.58-19.63-11.88-17.58-32.37,1.37-13.7,28.6-26.53,42.33-26.53C158.38,68.91,182.48,95.51,182.48,124.31Z"/><path class="cls-4" d="M231.3,77c-4-5.86-14,5.1-14,5.1l-57.45,51.29L171.54,148l53.19-60.38S232.51,78.79,231.3,77Z"/></svg>